<?xml version="1.0" encoding="UTF-8" standalone="no"?>
<!-- Created with Inkscape (http://www.inkscape.org/) -->

<svg
   width="144.77011mm"
   height="35.901428mm"
   viewBox="0 0 144.77011 35.901429"
   version="1.1"
   id="svg5"
   xml:space="preserve"
   xmlns="http://www.w3.org/2000/svg"
   xmlns:svg="http://www.w3.org/2000/svg"><defs
     id="defs9" /><g
     id="layer1"
     transform="translate(-25.792449,-106.67153)"><g
       id="g661"
       transform="translate(0,1.190625)"><path
         d="m 36.378761,134.17137 q -3.068496,0 -5.446581,-1.34246 -2.378084,-1.34247 -3.758907,-3.6822 -1.380824,-2.37808 -1.380824,-5.36987 0,-3.03014 1.380824,-5.36987 1.380823,-2.33972 3.758907,-3.64383 2.378085,-1.34247 5.446581,-1.34247 3.03014,0 5.408224,1.34247 2.416441,1.30411 3.758908,3.64383 1.380823,2.30138 1.380823,5.36987 0,3.03014 -1.380823,5.36987 -1.342467,2.33973 -3.758908,3.6822 -2.378084,1.34246 -5.408224,1.34246 z m 0,-3.22192 q 1.956166,0 3.490414,-0.88219 1.572605,-0.88219 2.454797,-2.49315 0.882193,-1.64932 0.882193,-3.79727 0,-2.1863 -0.882193,-3.75891 -0.882192,-1.61096 -2.454797,-2.49315 -1.534248,-0.88219 -3.490414,-0.88219 -1.956166,0 -3.490414,0.88219 -1.534248,0.88219 -2.454797,2.49315 -0.920549,1.57261 -0.920549,3.75891 0,2.14795 0.920549,3.79727 0.920549,1.61096 2.454797,2.49315 1.534248,0.88219 3.490414,0.88219 z m 22.870371,3.22192 q -2.531509,0 -4.6411,-1.15068 -2.071235,-1.18905 -3.33699,-3.49042 -1.227398,-2.30137 -1.227398,-5.75343 0,-3.45206 1.189042,-5.75343 1.227398,-2.30137 3.298633,-3.45206 2.109591,-1.15068 4.717813,-1.15068 2.991784,0 5.293156,1.30411 2.301372,1.30411 3.643839,3.64384 1.342467,2.30137 1.342467,5.40822 0,3.10685 -1.342467,5.44658 -1.342467,2.33973 -3.643839,3.64384 -2.301372,1.30411 -5.293156,1.30411 z m -10.778093,7.21097 v -27.76989 h 3.528771 v 5.48494 l -0.230137,4.71781 0.383562,4.71781 v 12.84933 z m 10.471243,-10.43289 q 1.956167,0 3.490415,-0.88219 1.572604,-0.88219 2.454797,-2.49315 0.920548,-1.64932 0.920548,-3.79727 0,-2.1863 -0.920548,-3.75891 -0.882193,-1.61096 -2.454797,-2.49315 -1.534248,-0.88219 -3.490415,-0.88219 -1.91781,0 -3.490414,0.88219 -1.534248,0.88219 -2.454797,2.49315 -0.882192,1.57261 -0.882192,3.75891 0,2.14795 0.882192,3.79727 0.920549,1.61096 2.454797,2.49315 1.572604,0.88219 3.490414,0.88219 z m 22.67937,3.22192 q -3.260277,0 -5.75343,-1.34246 -2.454797,-1.34247 -3.83562,-3.6822 -1.342468,-2.33973 -1.342468,-5.36987 0,-3.03014 1.304111,-5.36987 1.342467,-2.33972 3.643839,-3.64383 2.339729,-1.34247 5.2548,-1.34247 2.953427,0 5.216443,1.30411 2.263016,1.30411 3.528771,3.68219 1.304111,2.33973 1.304111,5.48494 0,0.23014 -0.03836,0.53699 0,0.30685 -0.03836,0.57534 H 73.56685 v -2.64658 h 15.380836 l -1.495892,0.92055 q 0.03836,-1.95616 -0.80548,-3.49041 -0.843836,-1.53425 -2.339728,-2.37809 -1.457536,-0.88219 -3.413702,-0.88219 -1.91781,0 -3.413702,0.88219 -1.495892,0.84384 -2.339728,2.41644 -0.843837,1.53425 -0.843837,3.52877 v 0.6137 q 0,2.03288 0.920549,3.64384 0.958905,1.57261 2.646578,2.4548 1.687673,0.88219 3.873976,0.88219 1.802742,0 3.260278,-0.6137 1.495891,-0.6137 2.608221,-1.84109 l 2.032879,2.37808 q -1.380823,1.61096 -3.452058,2.4548 -2.032879,0.84383 -4.564388,0.84383 z m 21.719658,-20.7507 q 2.49315,0 4.37261,0.9589 1.91781,0.95891 2.99178,2.91507 1.07397,1.95617 1.07397,4.94795 v 11.69865 h -3.68219 v -11.27673 q 0,-2.95342 -1.45754,-4.44932 -1.41918,-1.49589 -4.0274,-1.49589 -1.95616,0 -3.413701,0.76713 -1.457535,0.76712 -2.263015,2.26301 -0.767124,1.49589 -0.767124,3.72055 v 10.47125 h -3.682196 v -20.32879 h 3.528771 v 5.48494 l -0.575343,-1.45754 q 0.997261,-1.99452 3.068496,-3.10685 2.071232,-1.11233 4.832882,-1.11233 z"
         id="text2"
         style="font-weight:500;font-size:38.3562px;font-family:Montserrat;-inkscape-font-specification:'Montserrat Medium';letter-spacing:-2.24744px;word-spacing:0px;fill:#1998af;stroke-width:1.84;stroke-linejoin:round;stroke-miterlimit:4.7"
         aria-label="open  " /><path
         d="m 125.29902,134.17135 q -2.53151,0 -4.6411,-1.15069 -2.07124,-1.18904 -3.33699,-3.49042 -1.2274,-2.30137 -1.2274,-5.75343 0,-3.45205 1.18904,-5.75343 1.2274,-2.30137 3.29864,-3.45205 2.10959,-1.15069 4.71781,-1.15069 2.99178,0 5.29315,1.30411 2.30138,1.30411 3.64384,3.64384 1.34247,2.30137 1.34247,5.40822 0,3.10686 -1.34247,5.44659 -1.34246,2.33972 -3.64384,3.64383 -2.30137,1.30412 -5.29315,1.30412 z m -10.77809,7.21096 v -27.76989 h 3.52877 v 5.48494 l -0.23014,4.71781 0.38356,4.71781 v 12.84933 z m 10.47124,-10.43289 q 1.95617,0 3.49041,-0.88219 1.57261,-0.88219 2.4548,-2.49315 0.92055,-1.64932 0.92055,-3.79727 0,-2.1863 -0.92055,-3.7589 -0.88219,-1.61096 -2.4548,-2.49316 -1.53424,-0.88219 -3.49041,-0.88219 -1.91781,0 -3.49041,0.88219 -1.53425,0.8822 -2.4548,2.49316 -0.88219,1.5726 -0.88219,3.7589 0,2.14795 0.88219,3.79727 0.92055,1.61096 2.4548,2.49315 1.5726,0.88219 3.49041,0.88219 z m 22.7216,3.22193 q -2.60822,0 -4.71781,-1.15069 -2.07124,-1.18904 -3.29864,-3.49042 -1.18904,-2.30137 -1.18904,-5.75343 0,-3.45205 1.2274,-5.75343 1.26575,-2.30137 3.33699,-3.45205 2.10959,-1.15069 4.6411,-1.15069 2.99178,0 5.29315,1.30411 2.30138,1.30411 3.64384,3.64384 1.34247,2.30137 1.34247,5.40822 0,3.10686 -1.34247,5.44659 -1.34246,2.33972 -3.64384,3.64383 -2.30137,1.30412 -5.29315,1.30412 z m -10.77809,-0.23014 v -28.4603 h 3.68219 v 13.53974 l -0.38356,4.71781 0.23014,4.71781 v 5.48494 z m 10.47124,-2.99179 q 1.95616,0 3.49041,-0.88219 1.57261,-0.88219 2.4548,-2.49315 0.92055,-1.64932 0.92055,-3.79727 0,-2.1863 -0.92055,-3.7589 -0.88219,-1.61096 -2.4548,-2.49316 -1.53425,-0.88219 -3.49041,-0.88219 -1.91781,0 -3.49042,0.88219 -1.53424,0.8822 -2.45479,2.49316 -0.8822,1.5726 -0.8822,3.7589 0,2.14795 0.8822,3.79727 0.92055,1.61096 2.45479,2.49315 1.57261,0.88219 3.49042,0.88219 z m 12.22414,2.99179 v -20.32879 h 3.52877 v 5.52329 l -0.34521,-1.38082 q 0.84384,-2.10959 2.83836,-3.22192 1.99452,-1.11233 4.9096,-1.11233 v 3.56713 q -0.23014,-0.0384 -0.46028,-0.0384 -0.19178,0 -0.38356,0 -2.95343,0 -4.67946,1.76439 -1.72603,1.76438 -1.72603,5.10137 v 10.12604 z"
         id="text2-3"
         style="font-weight:500;font-size:38.3562px;font-family:Montserrat;-inkscape-font-specification:'Montserrat Medium';letter-spacing:-2.24744px;word-spacing:0px;fill:#bd295b;stroke-width:0;stroke-linejoin:round;stroke-miterlimit:4.7;stroke-opacity:0.305882"
         aria-label="pbr " /></g></g></svg>
