<?xml version="1.0" encoding="UTF-8" standalone="no"?>
<!-- Created with Inkscape (http://www.inkscape.org/) -->

<svg
   width="75.833557mm"
   height="75.90403mm"
   viewBox="0 0 75.83356 75.904032"
   version="1.1"
   id="svg5"
   xml:space="preserve"
   xmlns="http://www.w3.org/2000/svg"
   xmlns:svg="http://www.w3.org/2000/svg"><defs
     id="defs12" /><g
     id="layer1"
     transform="translate(-90.701871,-39.422426)"><ellipse
       style="display:inline;fill:#d64274;fill-opacity:1;stroke:none;stroke-width:1.2808;stroke-linecap:square;stroke-dasharray:none;stroke-opacity:1;stop-color:#000000"
       id="path1748-9-2"
       cx="98.429741"
       cy="107.50607"
       rx="7.72787"
       ry="7.8203816" /><g
       id="expressions-4725f18e-1"
       transform="matrix(0.3003064,0,0,0.3003064,64.038889,35.508888)"
       style="fill:#c3124f;fill-opacity:1;stroke:none;stroke-width:2.42086;stroke-dasharray:none;stroke-opacity:1"><path
         id="path1-8"
         style="fill:#c3124f;fill-opacity:1;stroke:none;stroke-width:2.35687;stroke-linejoin:round;stroke-miterlimit:4.7;stroke-dasharray:none;stroke-opacity:1"
         d="m 303.43827,162.13427 c -5.41987,-0.0267 -11.65969,0.50745 -17.18864,1.52286 -21.07105,3.86976 -44.66769,15.05277 -66.87322,31.69177 -30.56472,22.90271 -57.39744,54.91591 -74.19431,88.52656 -11.46686,22.94528 -17.64621,45.22648 -17.89562,63.10043 a 36.002894,36.433894 0 0 1 4.86174,-0.55453 36.002894,36.433894 0 0 1 2.77263,0.31663 c 0.70277,-3.96081 1.71906,-8.08957 3.04403,-12.23811 9.98595,-31.26651 33.27198,-64.41627 62.53417,-89.01742 20.8447,-17.52443 43.33767,-28.93701 61.75013,-31.33159 13.83042,-1.79868 24.22354,0.93436 31.20426,8.20565 4.48714,4.67391 6.93063,10.34424 7.81866,18.14357 0.35556,3.12273 0.16064,9.45458 -0.40375,13.12436 -4.77946,31.07708 -32.17231,69.24444 -69.36942,96.65514 -21.37618,15.75219 -44.19836,26.47571 -63.63653,29.98129 a 36.002894,36.433894 0 0 1 0.28816,2.59337 36.002894,36.433894 0 0 1 -0.34512,4.8651 c 4.51679,-0.0768 9.42277,-0.44709 13.56831,-1.07388 29.6576,-4.48405 64.72772,-21.48513 94.87597,-45.99387 28.73188,-23.3573 52.02914,-52.28367 65.05551,-80.77658 12.0631,-26.38589 14.83594,-50.55306 7.90242,-68.87521 -1.22135,-3.22748 -2.72493,-6.09956 -4.9053,-9.37502 -2.27101,-3.41163 -7.52064,-8.66045 -10.92802,-10.92635 -6.59849,-4.38796 -14.65058,-7.1919 -23.62518,-8.22575 -1.58399,-0.18247 -3.35122,-0.29047 -5.23701,-0.32669 -0.35358,-0.007 -0.71254,-0.01 -1.07387,-0.0117 z"
         transform="matrix(1.0271494,0,0,1.0271494,-21.217048,-153.50332)" /></g></g></svg>
