<?xml version="1.0" encoding="UTF-8" standalone="no"?>
<!-- Created with Inkscape (http://www.inkscape.org/) -->

<svg
   width="144.77013mm"
   height="103.15076mm"
   viewBox="0 0 144.77013 103.15076"
   version="1.1"
   id="svg5"
   xml:space="preserve"
   sodipodi:docname="openpbr-logo-horizontal.svg"
   inkscape:version="1.2.2 (732a01da63, 2022-12-09)"
   xmlns:inkscape="http://www.inkscape.org/namespaces/inkscape"
   xmlns:sodipodi="http://sodipodi.sourceforge.net/DTD/sodipodi-0.dtd"
   xmlns="http://www.w3.org/2000/svg"
   xmlns:svg="http://www.w3.org/2000/svg"><defs
     id="defs158" /><sodipodi:namedview
     id="namedview156"
     pagecolor="#ffffff"
     bordercolor="#000000"
     borderopacity="0.25"
     inkscape:showpageshadow="2"
     inkscape:pageopacity="0.0"
     inkscape:pagecheckerboard="0"
     inkscape:deskcolor="#d1d1d1"
     inkscape:document-units="mm"
     showgrid="false"
     inkscape:zoom="2.4127529"
     inkscape:cx="222.77457"
     inkscape:cy="195.00546"
     inkscape:window-width="2605"
     inkscape:window-height="1739"
     inkscape:window-x="973"
     inkscape:window-y="1354"
     inkscape:window-maximized="0"
     inkscape:current-layer="svg5" /><g
     id="layer1"
     transform="translate(-25.792449,-39.422205)"><g
       id="g661"
       transform="translate(0,1.190625)"><path
         d="m 36.378761,134.17137 q -3.068496,0 -5.446581,-1.34246 -2.378084,-1.34247 -3.758907,-3.6822 -1.380824,-2.37808 -1.380824,-5.36987 0,-3.03014 1.380824,-5.36987 1.380823,-2.33972 3.758907,-3.64383 2.378085,-1.34247 5.446581,-1.34247 3.03014,0 5.408224,1.34247 2.416441,1.30411 3.758908,3.64383 1.380823,2.30138 1.380823,5.36987 0,3.03014 -1.380823,5.36987 -1.342467,2.33973 -3.758908,3.6822 -2.378084,1.34246 -5.408224,1.34246 z m 0,-3.22192 q 1.956166,0 3.490414,-0.88219 1.572605,-0.88219 2.454797,-2.49315 0.882193,-1.64932 0.882193,-3.79727 0,-2.1863 -0.882193,-3.75891 -0.882192,-1.61096 -2.454797,-2.49315 -1.534248,-0.88219 -3.490414,-0.88219 -1.956166,0 -3.490414,0.88219 -1.534248,0.88219 -2.454797,2.49315 -0.920549,1.57261 -0.920549,3.75891 0,2.14795 0.920549,3.79727 0.920549,1.61096 2.454797,2.49315 1.534248,0.88219 3.490414,0.88219 z m 22.870371,3.22192 q -2.531509,0 -4.6411,-1.15068 -2.071235,-1.18905 -3.33699,-3.49042 -1.227398,-2.30137 -1.227398,-5.75343 0,-3.45206 1.189042,-5.75343 1.227398,-2.30137 3.298633,-3.45206 2.109591,-1.15068 4.717813,-1.15068 2.991784,0 5.293156,1.30411 2.301372,1.30411 3.643839,3.64384 1.342467,2.30137 1.342467,5.40822 0,3.10685 -1.342467,5.44658 -1.342467,2.33973 -3.643839,3.64384 -2.301372,1.30411 -5.293156,1.30411 z m -10.778093,7.21097 v -27.76989 h 3.528771 v 5.48494 l -0.230137,4.71781 0.383562,4.71781 v 12.84933 z m 10.471243,-10.43289 q 1.956167,0 3.490415,-0.88219 1.572604,-0.88219 2.454797,-2.49315 0.920548,-1.64932 0.920548,-3.79727 0,-2.1863 -0.920548,-3.75891 -0.882193,-1.61096 -2.454797,-2.49315 -1.534248,-0.88219 -3.490415,-0.88219 -1.91781,0 -3.490414,0.88219 -1.534248,0.88219 -2.454797,2.49315 -0.882192,1.57261 -0.882192,3.75891 0,2.14795 0.882192,3.79727 0.920549,1.61096 2.454797,2.49315 1.572604,0.88219 3.490414,0.88219 z m 22.67937,3.22192 q -3.260277,0 -5.75343,-1.34246 -2.454797,-1.34247 -3.83562,-3.6822 -1.342468,-2.33973 -1.342468,-5.36987 0,-3.03014 1.304111,-5.36987 1.342467,-2.33972 3.643839,-3.64383 2.339729,-1.34247 5.2548,-1.34247 2.953427,0 5.216443,1.30411 2.263016,1.30411 3.528771,3.68219 1.304111,2.33973 1.304111,5.48494 0,0.23014 -0.03836,0.53699 0,0.30685 -0.03836,0.57534 H 73.56685 v -2.64658 h 15.380836 l -1.495892,0.92055 q 0.03836,-1.95616 -0.80548,-3.49041 -0.843836,-1.53425 -2.339728,-2.37809 -1.457536,-0.88219 -3.413702,-0.88219 -1.91781,0 -3.413702,0.88219 -1.495892,0.84384 -2.339728,2.41644 -0.843837,1.53425 -0.843837,3.52877 v 0.6137 q 0,2.03288 0.920549,3.64384 0.958905,1.57261 2.646578,2.4548 1.687673,0.88219 3.873976,0.88219 1.802742,0 3.260278,-0.6137 1.495891,-0.6137 2.608221,-1.84109 l 2.032879,2.37808 q -1.380823,1.61096 -3.452058,2.4548 -2.032879,0.84383 -4.564388,0.84383 z m 21.719658,-20.7507 q 2.49315,0 4.37261,0.9589 1.91781,0.95891 2.99178,2.91507 1.07397,1.95617 1.07397,4.94795 v 11.69865 h -3.68219 v -11.27673 q 0,-2.95342 -1.45754,-4.44932 -1.41918,-1.49589 -4.0274,-1.49589 -1.95616,0 -3.413701,0.76713 -1.457535,0.76712 -2.263015,2.26301 -0.767124,1.49589 -0.767124,3.72055 v 10.47125 h -3.682196 v -20.32879 h 3.528771 v 5.48494 l -0.575343,-1.45754 q 0.997261,-1.99452 3.068496,-3.10685 2.071232,-1.11233 4.832882,-1.11233 z"
         id="text2"
         style="font-weight:500;font-size:38.3562px;font-family:Montserrat;-inkscape-font-specification:'Montserrat Medium';letter-spacing:-2.24744px;word-spacing:0px;fill:#1998af;stroke-width:1.84;stroke-linejoin:round;stroke-miterlimit:4.7"
         aria-label="open  " /><path
         d="m 125.29902,134.17135 q -2.53151,0 -4.6411,-1.15069 -2.07124,-1.18904 -3.33699,-3.49042 -1.2274,-2.30137 -1.2274,-5.75343 0,-3.45205 1.18904,-5.75343 1.2274,-2.30137 3.29864,-3.45205 2.10959,-1.15069 4.71781,-1.15069 2.99178,0 5.29315,1.30411 2.30138,1.30411 3.64384,3.64384 1.34247,2.30137 1.34247,5.40822 0,3.10686 -1.34247,5.44659 -1.34246,2.33972 -3.64384,3.64383 -2.30137,1.30412 -5.29315,1.30412 z m -10.77809,7.21096 v -27.76989 h 3.52877 v 5.48494 l -0.23014,4.71781 0.38356,4.71781 v 12.84933 z m 10.47124,-10.43289 q 1.95617,0 3.49041,-0.88219 1.57261,-0.88219 2.4548,-2.49315 0.92055,-1.64932 0.92055,-3.79727 0,-2.1863 -0.92055,-3.7589 -0.88219,-1.61096 -2.4548,-2.49316 -1.53424,-0.88219 -3.49041,-0.88219 -1.91781,0 -3.49041,0.88219 -1.53425,0.8822 -2.4548,2.49316 -0.88219,1.5726 -0.88219,3.7589 0,2.14795 0.88219,3.79727 0.92055,1.61096 2.4548,2.49315 1.5726,0.88219 3.49041,0.88219 z m 22.7216,3.22193 q -2.60822,0 -4.71781,-1.15069 -2.07124,-1.18904 -3.29864,-3.49042 -1.18904,-2.30137 -1.18904,-5.75343 0,-3.45205 1.2274,-5.75343 1.26575,-2.30137 3.33699,-3.45205 2.10959,-1.15069 4.6411,-1.15069 2.99178,0 5.29315,1.30411 2.30138,1.30411 3.64384,3.64384 1.34247,2.30137 1.34247,5.40822 0,3.10686 -1.34247,5.44659 -1.34246,2.33972 -3.64384,3.64383 -2.30137,1.30412 -5.29315,1.30412 z m -10.77809,-0.23014 v -28.4603 h 3.68219 v 13.53974 l -0.38356,4.71781 0.23014,4.71781 v 5.48494 z m 10.47124,-2.99179 q 1.95616,0 3.49041,-0.88219 1.57261,-0.88219 2.4548,-2.49315 0.92055,-1.64932 0.92055,-3.79727 0,-2.1863 -0.92055,-3.7589 -0.88219,-1.61096 -2.4548,-2.49316 -1.53425,-0.88219 -3.49041,-0.88219 -1.91781,0 -3.49042,0.88219 -1.53424,0.8822 -2.45479,2.49316 -0.8822,1.5726 -0.8822,3.7589 0,2.14795 0.8822,3.79727 0.92055,1.61096 2.45479,2.49315 1.57261,0.88219 3.49042,0.88219 z m 12.22414,2.99179 v -20.32879 h 3.52877 v 5.52329 l -0.34521,-1.38082 q 0.84384,-2.10959 2.83836,-3.22192 1.99452,-1.11233 4.9096,-1.11233 v 3.56713 q -0.23014,-0.0384 -0.46028,-0.0384 -0.19178,0 -0.38356,0 -2.95343,0 -4.67946,1.76439 -1.72603,1.76438 -1.72603,5.10137 v 10.12604 z"
         id="text2-3"
         style="font-weight:500;font-size:38.3562px;font-family:Montserrat;-inkscape-font-specification:'Montserrat Medium';letter-spacing:-2.24744px;word-spacing:0px;fill:#bd295b;stroke-width:0;stroke-linejoin:round;stroke-miterlimit:4.7;stroke-opacity:0.305882"
         aria-label="pbr " /></g><path
       id="path1-8"
       style="fill:#c3124f;fill-opacity:1;stroke:none;stroke-width:0.726999;stroke-linejoin:round;stroke-miterlimit:4.7;stroke-dasharray:none;stroke-opacity:1"
       d="m 151.5967,39.426461 c -1.74507,-0.03351 -3.81364,0.131656 -5.63279,0.465749 -6.49958,1.193667 -13.77861,4.643229 -20.62812,9.775693 -9.42799,7.064566 -17.70433,16.939429 -22.88549,27.306963 -4.764842,9.534478 -6.570897,18.697981 -4.931043,24.665844 a 6.0400857,6.1123918 0 0 1 0.642281,-0.0463 6.0400857,6.1123918 0 0 1 0.841977,0.0607 c -0.267595,-2.429799 0.154625,-5.728546 1.220085,-9.064551 3.08026,-9.644463 10.26351,-19.869989 19.28972,-27.458457 6.42975,-5.405581 13.36794,-8.925631 19.04745,-9.664262 4.26612,-0.55482 7.47155,0.288037 9.62482,2.530938 1.38411,1.441713 2.13808,3.190703 2.412,5.596483 0.10968,0.963236 0.0495,2.916396 -0.12457,4.048374 -1.47428,9.586031 -9.92366,21.359012 -21.39748,29.814112 -7.03567,5.184613 -14.57964,8.603043 -20.82092,9.435143 -1.07497,0.14333 -2.88805,0.20076 -3.70157,0.11707 -0.14594,-0.015 -0.26656,-0.0447 -0.40503,-0.0639 a 6.0400857,6.1123918 0 0 1 0.0538,0.76059 6.0400857,6.1123918 0 0 1 -0.0376,0.67296 c 0.36289,0.10282 0.71822,0.20899 1.12681,0.29171 0.52452,0.10621 1.25823,0.22265 1.63074,0.25854 1.78971,0.17246 4.56624,0.0666 6.692,-0.25478 9.14817,-1.38315 19.96558,-6.62719 29.2651,-14.18715 8.86263,-7.204791 16.0491,-16.127331 20.06721,-24.916251 3.72099,-8.138985 4.57638,-15.593705 2.43767,-21.245354 -0.37674,-0.995546 -0.8405,-1.88117 -1.51306,-2.891517 -0.70052,-1.052353 -2.31999,-2.671473 -3.37103,-3.370411 -2.03537,-1.353512 -4.51903,-2.218293 -7.28732,-2.537197 -0.4886,-0.05629 -1.03403,-0.08962 -1.61572,-0.100789 z" /><g
       id="g1"><path
         id="path136"
         style="fill:#1998af;stroke:#1998af;stroke-width:1.20031092;stroke-linecap:round;stroke-linejoin:round;stroke-miterlimit:4.7;stroke-dasharray:none"
         transform="matrix(-1.1834769,1.1847169,-1.1847169,-1.1834769,268.80849,70.073769)"
         d="m 93.368967,79.873561 -11.295551,0 5.647775,-9.782235 z" /><path
         id="path10232"
         style="color:#000000;fill:#1998af;fill-opacity:1;stroke:none;stroke-width:0.1;stroke-linecap:square;stroke-linejoin:round;stroke-miterlimit:4.7;stroke-dasharray:none"
         d="m 37.786841,44.268225 -2.610694,2.61121 1.305347,1.305347 0.163298,0.163297 2.61121,-2.610693 -0.163298,-0.163297 z m 1.914612,1.914612 -2.61121,2.610693 2.115633,2.115633 2.61121,-2.610693 z m 2.783809,2.783809 -2.610693,2.61121 3.636987,3.636988 2.61121,-2.61121 z m 4.527889,4.527889 -2.610693,2.61121 3.451985,3.451986 2.610694,-2.61121 z m 4.565613,4.565613 -2.61121,2.610693 6.792867,6.792867 2.61121,-2.61121 z m 8.128703,8.128703 -2.61121,2.610693 36.149214,36.149216 a 5.7670627,5.8361015 0 0 1 2.5554,-2.66702 z" /></g><ellipse
       style="display:inline;fill:#d64274;fill-opacity:1;stroke:none;stroke-width:0.751667;stroke-linecap:square;stroke-dasharray:none;stroke-opacity:1;stop-color:#000000"
       id="path1748-9-2"
       cx="98.429741"
       cy="107.50607"
       rx="4.5352559"
       ry="4.5895486" /></g></svg>
