<?xml version="1.0" encoding="utf-8"?>
<!-- Generator: Adobe Illustrator 26.2.1, SVG Export Plug-In . SVG Version: 6.00 Build 0)  -->
<svg version="1.1" id="Layer_1" xmlns="http://www.w3.org/2000/svg" xmlns:xlink="http://www.w3.org/1999/xlink" x="0px" y="0px"
	 viewBox="0 0 732.1 138.3" style="enable-background:new 0 0 732.1 138.3;" xml:space="preserve">
<style type="text/css">
	.st0{fill:#231F20;}
</style>
<polygon class="st0" points="486.4,0.8 484.7,0.8 471.5,38 473.2,38 "/>
<polygon class="st0" points="495.7,15.7 497.3,15.7 496.9,9.9 501.4,12.9 502.2,11.5 497.2,9.1 502.2,6.7 501.4,5.3 496.9,8.3 
	497.3,2.6 495.7,2.6 496.1,8.3 491.6,5.3 490.8,6.7 495.8,9.1 490.8,11.5 491.6,12.9 496.1,9.9 "/>
<path class="st0" d="M55.1,0.7l-54,136.5h3.3L22.6,92h68.1l18.5,45.2h3.3L58.3,0.7H55.1z M23.9,89.1L56.6,4.7l32.9,84.4H23.9z"/>
<path class="st0" d="M521.5,24.4h14.2l3.1,8h1.8L528.9,2.3h-0.5l-11.6,30.1h1.7L521.5,24.4z M527.8,8.2c0.4-1,0.8-2.5,0.8-2.7
	c0,0.1,0.4,1.7,0.8,2.7l5.6,14.6h-13L527.8,8.2z"/>
<path class="st0" d="M557.9,32.7c5,0,9.2-2.1,11.8-5.9l-1.3-1c-2.3,3.4-6,5.3-10.5,5.3c-7.4,0-13-5.8-13-13.6s5.5-13.6,13-13.6
	c4.6,0,8,1.9,10.1,5l1.3-1c-2.4-3.6-6.4-5.6-11.4-5.6c-8.1,0-14.7,6.2-14.7,15.2S549.7,32.7,557.9,32.7z"/>
<path class="st0" d="M577.9,24.4h14.2l3.1,8h1.8L585.3,2.3h-0.5l-11.6,30.1h1.7L577.9,24.4z M584.2,8.2c0.4-1,0.8-2.5,0.8-2.7
	c0,0.1,0.4,1.7,0.8,2.7l5.6,14.6h-13L584.2,8.2z"/>
<path class="st0" d="M625.1,17.5c0-9.1-5.8-14.9-15.7-14.9h-6.1v29.7h6.1C619.3,32.4,625.1,26.6,625.1,17.5z M604.9,30.7V4.2h4.2
	c9.5,0,14.1,5.5,14.1,13.3s-4.6,13.3-14.1,13.3L604.9,30.7L604.9,30.7z"/>
<polygon class="st0" points="649.2,30.8 633.6,30.8 633.6,18.2 647.1,18.2 647.1,16.6 633.6,16.6 633.6,4.2 648.6,4.2 648.6,2.6 
	631.8,2.6 631.8,32.4 649.2,32.4 "/>
<path class="st0" d="M657.7,8.7c0-1-0.1-2.6-0.1-2.6s0.8,1.5,1.6,2.4l10,13.7h0.5l10.1-13.7c0.8-1,1.6-2.4,1.6-2.4s-0.1,1.5-0.1,2.6
	v23.6h1.7v-30h-0.4l-13,17.7l-13-17.7h-0.4v30.1h1.7V8.7H657.7z"/>
<path class="st0" d="M699.1,32.4h1.8V21.5l10-18.9h-1.8l-8.3,15.6c-0.4,0.7-0.8,1.7-0.8,1.8c0-0.2-0.3-1.1-0.7-1.8L691,2.6h-2
	l10,18.8L699.1,32.4L699.1,32.4z"/>
<path class="st0" d="M121.8,39.4c-0.6-7.5,1.1-14.5,5.9-20.5c8-10.5,22.4-15.1,35-15.3C174.8,3.4,188,7,196.2,15.8
	c3.8,4.2,6.1,9,7.3,14.5l0.2,1.5l2.9-0.6l-0.2-1.5c-6.5-34.6-61.6-37.9-81.1-12.6c-5,6.5-7.1,14.3-6.3,22.4
	c3.4,49.9,79,13.6,87.6,53.4c5.5,26.6-19.7,41.7-43,41.7c-18.2,0-40.6-10.1-42.7-30.2l-0.2-1.3l-3.1,0.4l0.2,1.3
	c2.3,21.6,26,32.7,45.5,32.7c25.4,0,52.4-16.8,46.3-45.1C200.4,49.5,125.2,86.2,121.8,39.4z"/>
<polygon class="st0" points="330.4,132.1 297.9,40.1 293.6,40.1 261.1,132.1 217.6,0.7 214.5,0.7 259.8,137.2 262.5,137.2 
	295.8,42.6 329.2,137.2 331.9,137.2 377.2,0.7 374.1,0.7 "/>
<path class="st0" d="M387.4,137.4h2.9V70.5h62.6v-3.1h-62.6V3.6h70.8V0.7h-73.7C387.4,46.2,387.4,91.8,387.4,137.4z"/>
<path class="st0" d="M490,77.6c0-4.1-2.2-6.6-6.9-8.8l-2.7-1.3c-3.6-1.7-5-3.1-5-6.1s2-5,5.4-5c3.2,0,4.8,1.7,6,3.6l1.4-0.9
	c-1.4-2.2-3.5-4.3-7.4-4.3s-7.1,2.5-7.1,6.6c0,3.8,2,5.7,6,7.7l2.7,1.3c4,1.9,5.9,3.8,5.9,7.3c0,3.8-3.1,6-6.9,6
	c-4.6,0-6.8-2.5-8.1-5.1l-1.5,0.7c1.4,3,4.2,5.9,9.7,5.9C486.4,85.2,490,82.2,490,77.6z"/>
<path class="st0" d="M509.3,85.2c8.1,0,14.7-6.2,14.7-15.2s-6.6-15.2-14.7-15.2c-8.1,0-14.7,6.2-14.7,15.2S501.2,85.2,509.3,85.2z
	 M509.3,56.4c7.4,0,13,5.8,13,13.6s-5.5,13.6-13,13.6c-7.4,0-13-5.8-13-13.6S501.9,56.4,509.3,56.4z"/>
<polygon class="st0" points="532.6,71.4 546.2,71.4 546.2,69.8 532.6,69.8 532.6,56.7 547.6,56.7 547.6,55.1 530.8,55.1 530.8,84.8 
	532.6,84.8 "/>
<polygon class="st0" points="561,84.8 562.7,84.8 562.7,56.7 571.8,56.7 571.8,55.1 551.8,55.1 551.8,56.7 561,56.7 "/>
<path class="st0" d="M603.5,79c-0.3,0.8-0.5,2-0.5,2.1c0-0.2-0.3-1.4-0.5-2.1l-8.3-24.3h-0.5L585.5,79c-0.3,0.8-0.6,2-0.6,2.1
	c0-0.2-0.3-1.4-0.5-2.1l-7-23.9h-1.9l9,30.1h0.5l8.4-24.7c0.3-0.8,0.5-2,0.5-2.1c0,0.3,0.2,1.4,0.5,2.1l8.4,24.7h0.5l9-30.1h-1.8
	L603.5,79z"/>
<path class="st0" d="M618.3,76.9h14.2l3.1,8h1.8l-11.7-30.1h-0.5l-11.6,30.1h1.7L618.3,76.9z M624.6,60.7c0.4-1,0.8-2.5,0.8-2.7
	c0,0.1,0.4,1.7,0.8,2.7l5.6,14.6h-13L624.6,60.7z"/>
<path class="st0" d="M661.3,63.8c0-5.8-3.9-8.7-10-8.7h-7.7v29.7h1.7V72.6h6c0.7,0,1.3,0,1.9-0.1l7,12.4h2.1l-7.2-12.7
	C659,71,661.3,68.2,661.3,63.8z M651.1,71h-5.8V56.7h5.8c5.5,0,8.4,2.4,8.4,7.2C659.5,68.5,656.6,71,651.1,71z"/>
<polygon class="st0" points="686.3,83.3 670.7,83.3 670.7,70.7 684.2,70.7 684.2,69.1 670.7,69.1 670.7,56.7 685.7,56.7 685.7,55.1 
	668.9,55.1 668.9,84.8 686.3,84.8 "/>
<polygon class="st0" points="471.9,137.2 473.7,137.2 473.7,123.7 487.3,123.7 487.3,122.1 473.7,122.1 473.7,109 488.7,109 
	488.7,107.5 471.9,107.5 "/>
<path class="st0" d="M507.6,107.1c-8.1,0-14.7,6.2-14.7,15.2c0,9.1,6.6,15.2,14.7,15.2s14.7-6.2,14.7-15.2
	C522.4,113.3,515.8,107.1,507.6,107.1z M507.6,135.9c-7.4,0-13-5.8-13-13.6s5.5-13.6,13-13.6c7.5,0,13,5.8,13,13.6
	C520.6,130.1,515,135.9,507.6,135.9z"/>
<path class="st0" d="M546.5,127.2c0,5.7-3.3,8.8-8,8.8s-8-3.1-8-8.8v-19.7h-1.7v19.9c0,6.7,4.1,10.2,9.7,10.2
	c5.5,0,9.7-3.5,9.7-10.2v-19.9h-1.7V127.2z"/>
<path class="st0" d="M576.8,131.5c0,0.9,0.1,2.2,0.1,2.2s-0.8-1.2-1.3-2L557.2,107h-0.5v30.1h1.6V113c0-0.9-0.1-2.2-0.1-2.2
	s0.8,1.2,1.3,2l18.4,24.7h0.5v-30.1h-1.6V131.5z"/>
<path class="st0" d="M593.3,107.5h-6.1v29.7h6.1c10,0,15.7-5.7,15.7-14.9S603.2,107.5,593.3,107.5z M593.1,135.6h-4.2v-26.5h4.2
	c9.5,0,14.1,5.5,14.1,13.3C607.2,130.1,602.6,135.6,593.1,135.6z"/>
<path class="st0" d="M623.3,107.1l-11.6,30.1h1.7l3-8h14.2l3.1,8h1.8l-11.7-30.1H623.3z M630,127.7h-13l5.6-14.7
	c0.4-1,0.8-2.5,0.8-2.7c0,0.1,0.4,1.7,0.8,2.7L630,127.7z"/>
<polygon class="st0" points="635.7,109 644.9,109 644.9,137.2 646.6,137.2 646.6,109 655.8,109 655.8,107.5 635.7,107.5 "/>
<rect x="661.7" y="107.5" class="st0" width="1.7" height="29.7"/>
<path class="st0" d="M685.1,107.1c-8.1,0-14.7,6.2-14.7,15.2c0,9.1,6.6,15.2,14.7,15.2c8.1,0,14.7-6.2,14.7-15.2
	S693.2,107.1,685.1,107.1z M685.1,135.9c-7.4,0-13-5.8-13-13.6s5.5-13.6,13-13.6s13,5.8,13,13.6
	C698.1,130.1,692.5,135.9,685.1,135.9z"/>
<path class="st0" d="M726.7,107.5v24.1c0,0.9,0.1,2.2,0.1,2.2s-0.8-1.2-1.3-2l-18.4-24.7h-0.5v30.1h1.6v-24.1c0-0.9-0.1-2.2-0.1-2.2
	s0.8,1.2,1.3,2l18.4,24.7h0.5v-30.1L726.7,107.5L726.7,107.5z"/>
</svg>
